<svg width="426" height="512" viewBox="0 0 426 512" fill="none" xmlns="http://www.w3.org/2000/svg">
<path d="M0.839268 498.006L27.1977 511.675L25.8562 482.013L0.839268 498.006ZM407.339 209L409.867 209.47L407.339 209ZM24.1716 499.522C91.1305 493.734 179.449 464.267 255.028 414.843C330.589 365.431 393.824 295.796 409.867 209.47L404.811 208.53C389.126 292.929 327.165 361.526 252.213 410.539C177.28 459.54 89.7672 488.69 23.7287 494.398L24.1716 499.522ZM409.867 209.47C431.943 90.679 424.923 32.9763 419.373 0.565558L414.304 1.43359C419.749 33.2304 426.779 90.3209 404.811 208.53L409.867 209.47Z" fill="white"/>
</svg>
