<svg width="583" height="369" viewBox="0 0 583 369" fill="none" xmlns="http://www.w3.org/2000/svg">
<path d="M582.5 368.695L578.374 339.291L554.973 357.566L582.5 368.695ZM259.501 83.6978L258.368 86.0064L259.501 83.6978ZM570.276 348.864C523.553 288.711 490.65 243.614 447.196 202.716C403.683 161.763 349.656 125.065 260.633 81.3893L258.368 86.0064C347.094 129.537 400.645 165.966 443.671 206.461C486.755 247.011 519.349 291.682 566.214 352.019L570.276 348.864ZM260.633 81.3893C208.382 55.7539 149.727 35.4537 100.964 21.5633C76.5763 14.6163 54.6376 9.26542 37.1814 5.64889C19.8072 2.04935 6.67109 0.123875 -1.23878e-06 0.123867L-1.87185e-06 5.26666C6.0789 5.26667 18.7376 7.07974 36.1381 10.6847C53.4566 14.2728 75.2726 19.5924 99.5549 26.5093C148.132 40.3466 206.477 60.5477 258.368 86.0064L260.633 81.3893Z" fill="white"/>
</svg>
