<svg width="468" height="582" viewBox="0 0 468 582" fill="none" xmlns="http://www.w3.org/2000/svg">
<path d="M467.497 568.496L441.026 581.945L442.614 552.296L467.497 568.496ZM67.4973 387.498L69.4661 385.844L67.4973 387.498ZM444.145 569.818C367.085 562.819 178.576 523.706 65.5285 389.152L69.4661 385.844C181.181 518.812 367.968 557.735 444.61 564.696L444.145 569.818ZM65.5285 389.152C13.6726 327.431 0.67627 238.165 0.488434 160.718C0.394348 121.931 3.51437 85.9678 6.65256 57.6897C8.22095 43.5567 9.79691 31.3186 10.975 21.6422C12.1633 11.8827 12.9259 4.87706 12.9259 0.998047H18.0687C18.0687 5.2618 17.2532 12.6288 16.0801 22.2638C14.8969 31.9819 13.3284 44.1601 11.7639 58.2569C8.63651 86.4386 5.53778 122.19 5.6312 160.706C5.81836 237.867 18.822 325.565 69.4661 385.844L65.5285 389.152Z" fill="white"/>
</svg>
