<svg width="386" height="524" viewBox="0 0 386 524" fill="none" xmlns="http://www.w3.org/2000/svg">
<path d="M0.500488 512.996L28.3689 523.241L23.3072 493.984L0.500488 512.996ZM311.347 257.035L309.096 255.793L311.347 257.035ZM24.0191 511.521C58.616 501.497 111.744 473.062 165.78 429.797C219.853 386.503 275.032 328.201 313.599 258.277L309.096 255.793C270.929 324.991 216.249 382.8 162.565 425.783C108.844 468.796 56.3162 496.809 22.5879 506.581L24.0191 511.521ZM313.599 258.277C353.622 185.712 371.515 129.587 379.384 87.4374C387.252 45.2924 385.078 17.1571 385.078 0.996094H379.935C379.935 17.4061 382.087 44.938 374.329 86.4935C366.571 128.044 348.884 183.653 309.096 255.793L313.599 258.277Z" fill="white"/>
</svg>
