<svg width="517" height="808" viewBox="0 0 517 808" fill="none" xmlns="http://www.w3.org/2000/svg">
<path d="M30.1953 528.815H484.129L402.862 789.173C402.862 789.173 392.082 807.873 258.406 807.873C124.73 807.873 114.57 789.173 114.57 789.173L30.1953 528.815Z" fill="white"/>
<path d="M516.051 503.777C516.051 570.287 400.529 624.204 258.025 624.204C115.522 624.204 0 570.287 0 503.777C86.5916 240.945 115.522 491.471 258.025 491.471C400.529 491.471 399.721 230.397 516.051 503.777Z" fill="#C8E4FF"/>
<ellipse cx="258.399" cy="415.705" rx="207.935" ry="119.518" transform="rotate(-1.01118 258.399 415.705)" fill="white"/>
<path d="M434.446 312.813C434.412 354.282 365.751 360.183 274.714 360.108C183.677 360.033 116.986 354.283 117.02 312.813C117.054 271.343 183.8 209.858 274.837 209.933C365.874 210.008 434.48 271.343 434.446 312.813Z" fill="white"/>
<path d="M405.064 219.351C405.064 250.156 350.36 275.128 282.88 275.128C215.4 275.128 160.696 250.156 160.696 219.351C239.783 38.7581 433.944 105.848 420.615 105.848C316.647 148.057 405.064 188.546 405.064 219.351Z" fill="white"/>
<rect x="91.8364" y="382.622" width="10.2996" height="34.3321" rx="5.14982" transform="rotate(-17.1799 91.8364 382.622)" fill="#FE82B4"/>
<rect x="356.66" y="231.036" width="10.2996" height="34.3321" rx="5.14982" transform="rotate(-17.1799 356.66 231.036)" fill="#FE82B4"/>
<rect x="143.071" y="448.709" width="10.2996" height="34.3321" rx="5.14982" transform="rotate(39.6511 143.071 448.709)" fill="#FFE9AF"/>
<rect x="293.998" y="360.228" width="10.2996" height="34.3321" rx="5.14982" transform="rotate(-44.5681 293.998 360.228)" fill="#FFE9AF"/>
<rect x="344.282" y="114.852" width="10.2996" height="34.3321" rx="5.14982" transform="rotate(39.6511 344.282 114.852)" fill="#FFE9AF"/>
<rect x="345.015" y="480.053" width="10.2996" height="34.3321" rx="5.14981" transform="rotate(96.8768 345.015 480.053)" fill="#FFE9AF"/>
<rect x="238.79" y="492.317" width="10.2997" height="34.3322" rx="5.14983" transform="rotate(69.9808 238.79 492.317)" fill="#FFA1BC"/>
<rect x="416.079" y="380.563" width="10.2996" height="34.3321" rx="5.14982" transform="rotate(7.63902 416.079 380.563)" fill="#FE82B4"/>
<rect x="231.607" y="421.537" width="10.2996" height="34.3322" rx="5.14982" transform="rotate(151.442 231.607 421.537)" fill="#FFA1BC"/>
<rect x="174.905" y="334" width="10.2996" height="34.3321" rx="5.14982" transform="rotate(39.6511 174.905 334)" fill="#FFA1BC"/>
<rect x="154.954" y="207.52" width="10.2996" height="34.3321" rx="5.14982" transform="rotate(-27.9872 154.954 207.52)" fill="#FE82B4"/>
<path d="M148.031 149.428C151.178 144.031 157.471 129.639 154.774 122.893C152.077 116.147 147.188 113.066 143.592 109.918C139.996 106.77 133.703 102.722 132.354 97.7752L132.306 97.5985C130.985 92.7526 130.134 89.6315 132.354 85.6322C134.602 81.5845 143.592 74.8384 144.94 70.341C146.289 65.8436 147.637 54.6001 148.536 51.9017C149.435 49.2032 150.783 44.7058 153.031 42.4571C155.278 40.2084 160.672 34.8115 161.122 31.2136C161.571 27.6157 161.122 22.2188 161.122 19.0706C161.122 15.9225 160.672 12.7743 159.324 9.17635C157.975 5.57842 159.765 1.55215 163.361 2.00189C166.956 2.45163 173.418 6.19383 176.861 8.50189C181.821 11.8274 188.512 17.7214 189.861 19.0706C191.209 20.4199 194.469 26.7003 192.081 27.0985C175.9 29.797 188.036 24.4675 188.485 23.568C188.935 22.6686 188.935 20.8021 186.687 18.1037C184.44 15.4053 179.945 9.55875 177.698 5.51108C175.45 1.46341 177.698 -0.512764 185.843 0.114198C191.687 0.563945 196.182 3.77948 199.778 6.47791C203.374 9.17635 217 20.1387 221 23.568C223.462 25.6786 227.904 29.9523 231.5 34C235.096 38.0477 238.753 43.7464 241 49.5C241.818 51.5942 242.928 54.1504 243.378 60.4468C243.827 66.7432 244.726 75.2882 243.378 83.8333C242.029 92.3783 237.085 103.622 237.535 108.119C237.984 112.617 238.883 116.664 242.479 118.913C246.075 121.162 260.054 127.451 264.449 130.089C273.439 135.486 279.106 139.311 281.584 141.4C299.5 156.5 313.829 181.598 321.983 199.799C330.138 218 331.423 237.5 332.5 253.5C333.16 263.305 330.074 277.154 331.423 284.35C332.771 291.546 337.77 297.46 341.816 301.957C345.861 306.455 361.593 324.894 366.088 330.741C370.583 336.587 385.702 359.061 387.5 377.5C389.298 395.939 390.293 414.214 384 438.5C377.707 462.786 373.237 470.656 362 481C350.763 491.344 335.972 493.097 315.296 491.298C294.62 489.499 277.133 475.5 271.696 471.06C265.5 466 261 460 259.504 450.304C258.789 445.664 258.63 437 262.651 430.965C266.247 425.568 277.49 412.823 287.373 419.272C297.711 426.018 283.327 434.114 282.428 442.659C281.88 447.875 292.372 457.568 304.508 457.568C316.645 457.568 321.983 457.567 332.826 452.171C339.991 448.604 352.099 432.832 353.897 428.717C355.337 425.42 366.495 406.886 362 383.5C357.505 360.114 358.5 366.5 348.109 346.482C338.444 327.864 322.882 314.033 320.635 313.133C318.387 312.234 316.14 309.086 302.261 306.005C289.695 303.216 235.287 304.206 209.217 309.603C183.147 315 178.652 294.312 172.359 293.862C166.066 293.412 157.975 300.158 152.132 301.058C146.289 301.957 126.906 301.44 122.411 295.144C117.916 288.847 117.971 287.116 120.218 282.619C122.466 278.121 133.253 274.073 135.501 269.576C137.748 265.079 149.435 247.539 150.783 226.401C152.132 205.263 109.5 185 96.8449 176.93C91.7597 173.687 67 156 60.4363 151.294C56.0219 148.129 46.0529 140.107 46.0527 132.855C46.0526 125.209 46.9517 121.611 53.694 119.363C60.4363 117.114 68.0777 117.564 71.2241 118.014C74.3705 118.463 88.3046 123.41 91.451 125.209C94.5974 127.008 112.577 136.903 116.173 139.601C119.05 141.76 132.207 149.455 138.5 152.5C145 154.028 146.306 152.388 148.031 149.428Z" fill="#FFA1BC"/>
</svg>
