<svg width="601" height="633" viewBox="0 0 601 633" fill="none" xmlns="http://www.w3.org/2000/svg">
<path d="M337.189 161.306C339.19 158.183 342.088 154.305 340.564 126.347C366.267 112.966 366.684 103.285 366.585 100.155C366.471 96.5264 362.543 84.5439 349.243 82.5406C335.943 80.5373 322.34 82.4971 322.34 82.4971C309.712 86.3992 292.715 47.5416 268.252 58.2326C252.96 64.9155 258.087 75.507 236.877 77.0631C222.513 78.117 229.331 73.2945 213.719 74.7939C198.108 76.2933 190.092 83.2035 192.088 95.3476C194.084 107.492 198.04 110.107 210.816 121.09C214.21 124.008 216.599 126.157 218.337 128.014C220.191 130.215 222.633 133.991 223.826 139.546C224.074 140.704 227.498 149.526 227.956 152.834C230.044 167.9 229.727 165.605 229.727 165.605C229.727 165.605 242.35 161.006 243.243 160.775C258.415 156.858 273.689 156.492 287.634 156.193C301.247 155.902 322.903 159.249 333.164 162.385C335.536 163.11 335.795 164.443 337.189 161.306Z" fill="white"/>
<path d="M93.5841 200.218C93.8956 156.862 111.577 118.162 122.276 114.304C131.457 114.276 148.944 130.353 162.125 141.025C175.305 151.698 186.64 171.253 192.088 176.828C218.242 174.165 248.987 151.84 293.773 153.565C349.756 155.723 382.598 178.542 393.278 168.564C403.799 158.734 409.012 151.677 444.408 125.564C481.643 98.0938 484.216 163.544 485.887 179.758C490.618 225.648 486.547 240.195 478.718 266.998C470.89 293.802 455.904 327.549 445.074 344.072C434.243 360.596 370.39 433.223 370.287 399.386C370.244 385.424 366.012 540.791 320.925 520.418C301.416 519.667 321.225 476.733 294.768 479.949C268.31 483.165 296.962 393.265 237.295 442.635C177.628 492.006 129.966 358.324 113.783 315.348C97.5996 272.372 93.1947 254.414 93.5841 200.218Z" fill="#FFA1BC"/>
</svg>
