<svg width="342" height="412" viewBox="0 0 342 412" fill="none" xmlns="http://www.w3.org/2000/svg">
<path d="M35.8467 248.614H299.677L252.444 400.603C252.444 400.603 246.178 411.52 168.485 411.52C90.7912 411.52 84.8857 400.603 84.8857 400.603L35.8467 248.614Z" fill="#FFA1BC"/>
<path d="M309.9 198.077C309.9 240.546 235.227 231.611 165.935 231.611C96.6444 231.611 25.4404 240.546 25.4404 198.077C25.4404 155.609 96.6444 77.8184 165.935 77.8184C235.227 77.8184 309.9 155.609 309.9 198.077Z" fill="white"/>
<path d="M68.1462 55.2524C68.5183 30.2783 77.3858 7.95505 82.6528 5.71345C87.1557 5.68073 95.6509 14.9095 102.061 21.033C108.472 27.1565 113.932 38.4 116.576 41.6011C129.416 40.0201 144.608 27.1051 166.565 28.0182C194.011 29.1595 210.003 42.2444 215.291 36.4774C220.501 30.7967 223.093 26.722 240.585 11.6167C258.986 -4.27335 259.917 33.4215 260.655 42.7577C262.743 69.1821 260.673 77.5684 256.698 93.0216C252.722 108.475 254.667 102.802 250.879 113.084C242.785 135.055 242.127 132.818 241.628 133.899C238.159 141.415 212.142 163.118 190.749 162.228C181.185 161.83 166.565 150.665 154.324 144.306C142.672 138.252 139.408 128.55 98.8596 135.008C25.971 146.618 68.1462 130.273 73.959 115.397C79.5414 101.11 67.6811 86.4701 68.1462 55.2524Z" fill="#FFA1BC"/>
<path d="M341.12 234.501C341.12 278.247 264.757 313.71 170.56 313.71C76.3622 313.71 0 278.247 0 234.501C57.2387 61.6286 76.3622 226.407 170.56 226.407C264.757 226.407 264.223 54.6906 341.12 234.501Z" fill="#C8E4FF"/>
</svg>
