<svg width="788" height="911" viewBox="0 0 788 911" fill="none" xmlns="http://www.w3.org/2000/svg">
<path d="M338.994 369.222C322.414 396.639 312.986 411.345 294.691 472.797C284.578 506.766 270.95 511.591 244.539 540.962C204.408 579.516 35.3476 726.79 39.9995 755.5C45.8145 791.387 65.0517 839.789 126.501 863.999C187.95 888.21 293.541 707.51 321.892 664.319C350.243 621.127 412.262 574.112 451.07 564.052C489.878 553.992 539.126 506.57 558.183 487.05C578.093 466.655 574.882 469.466 619.693 417.691C652.835 379.398 660.225 354.128 656.146 342.32C650.996 327.411 632.223 363.005 621.913 376.657C614.244 386.811 586.976 418.718 580.377 422.061C568.313 428.174 556.511 447.291 558.108 435.881C559.706 424.471 588.29 387.284 602.725 369.263C621.118 346.3 634.853 325.408 646.248 310.707C659.166 294.043 660.504 270.023 647.013 278.669C645.234 279.809 644.186 278.944 630.752 294.032C621.105 304.867 604.487 321.659 588.543 338.663C574.269 353.887 536.931 407.766 526.036 390.697C520.748 382.412 553.651 345.063 573.676 326.273C593.702 307.482 605.555 296.649 625.15 277.486C640.223 262.746 650.014 250.263 642.758 244.735C629.174 234.387 614.717 252.734 599.446 264.726C587.897 273.795 566.487 295.235 544.904 312.927C533.31 323.713 495.135 361.413 487.529 359.377C475.54 356.168 478.487 349.974 502.435 324.043C525.38 299.198 560.473 276.185 577.071 263.516C597.936 247.59 608.262 227.542 586.195 231.93C567.255 235.696 576.782 233.857 529.443 263.513C502.81 280.198 465.941 315.572 455.698 324.764C451.02 328.962 408.319 377.08 397.733 364.531C387.146 351.983 433.441 333.182 449.611 294.5C465.782 255.817 433.01 275.292 413.072 295.287C395.283 313.125 355.574 341.805 338.994 369.222Z" fill="white"/>
<rect width="30.0052" height="251.395" rx="15.0026" transform="matrix(0.977655 -0.210216 -0.210216 -0.977655 567.574 475.769)" fill="#FFE9AF"/>
<rect x="529.498" y="69.3672" width="17.9619" height="109.404" rx="8.98096" transform="rotate(-10.609 529.498 69.3672)" fill="#FFE9AF"/>
<rect x="490.979" y="76.5811" width="17.9619" height="109.404" rx="8.98096" transform="rotate(-10.609 490.979 76.5811)" fill="#FFE9AF"/>
<rect x="452.459" y="83.7969" width="17.9619" height="109.404" rx="8.98096" transform="rotate(-10.609 452.459 83.7969)" fill="#FFE9AF"/>
<rect x="463.068" y="140.062" width="96.3412" height="106.139" rx="33.4127" transform="rotate(-10.609 463.068 140.062)" fill="#FFE9AF"/>
</svg>
