<svg width="432" height="385" viewBox="0 0 432 385" fill="none" xmlns="http://www.w3.org/2000/svg">
<path d="M328.861 125.258C334.161 119.085 361.768 78.9724 368.845 67.9127C374.047 59.7825 400.531 28.2964 416.217 9.93796L420.876 0.825209C423.578 1.59955 429.51 5.03085 431.628 12.5613C434.276 21.9744 421.212 38.6511 419.193 47.7414C417.173 56.8317 397.637 101.283 395.843 111.827C394.048 122.37 375.222 187.896 369.98 199.268C364.739 210.64 332.486 256.538 322.127 264.681C311.769 272.823 320.486 265.512 306.681 274.483C292.876 283.454 247.279 285.96 208.215 298.338C191.234 303.718 70.2894 343.191 67.8524 357.507C65.4725 371.488 91.1352 364.985 75.6599 369.898C63.2797 373.828 20.0617 381.188 0.000215287 384.377L34.6963 236.036L88.0284 238.982C91.4489 238.306 102.332 236.511 118.501 234.735C138.713 232.515 242.052 222.79 251.786 218.315C261.52 213.84 258.279 218.315 278.479 195.95C285.536 188.137 323.56 131.432 328.861 125.258Z" fill="white"/>
</svg>
