<svg width="853" height="798" viewBox="0 0 853 798" fill="none" xmlns="http://www.w3.org/2000/svg">
<ellipse rx="44.6578" ry="69.3946" transform="matrix(-0.258581 0.965989 0.965989 0.258581 108.267 323.152)" fill="#C8E4FF"/>
<rect width="23.7502" height="197.735" rx="11.8751" transform="matrix(-0.30392 0.952698 0.952698 0.30392 174.222 329.458)" fill="#C8E4FF"/>
<path d="M556.514 377.346C526.418 347.616 366.672 264.942 353.094 254.886C330.721 238.316 329.61 253.686 348.865 271.065C355.858 277.377 353.185 274.487 370.973 293.049C388.76 311.612 391.758 314.457 368.561 308.266C349.596 303.205 331.957 294.151 308.227 283.287C284.497 272.424 298.751 278.459 273.621 267.921C248.49 257.383 248.426 261.511 273.292 283.777C287.944 296.898 332.357 320.076 353.001 331.606C357.932 336.159 368.446 346.081 347.707 341.379C319.287 334.935 298.837 326.872 264.35 319.213C228.255 311.197 228.956 310.802 227.054 313.582C225.153 316.361 192.844 307.023 227.876 328.152C246.542 339.41 247.613 336.87 278.435 347.851C309.315 358.853 328.436 362.335 336.178 370.135C343.673 377.686 332.174 390.302 324.707 391.31C317.241 392.319 330.637 393.431 281.887 388.424C255.615 385.726 260.07 386.389 236.778 383.038C213.485 379.688 211.606 378.616 199.46 379.562C192.564 380.099 187.698 380.143 185.407 380.822C181.522 381.343 182.839 382.161 183.983 382.506C184.475 384.17 185.868 390.261 193.85 394.322C205.607 400.303 225.214 405.114 234.299 408.391C243.385 411.669 279.731 418.407 299.661 421.996C319.59 425.585 338.472 430.49 355.217 439.049C384.657 454.098 389.595 456.748 375.86 465.956C355.256 479.769 357.667 475.534 337.728 487.306C317.789 499.079 311.519 503.914 311.519 503.914C311.519 503.914 278.854 522.97 343.24 508.701C388.525 498.666 395.672 497.695 456.893 488.34C477.519 485.188 468.199 491.188 533.544 476.559L689.12 515.746L713.291 394.923L614.16 383.003L556.514 377.346Z" fill="white"/>
<path d="M219.607 310.701C208.987 310.213 207.306 310.812 204.66 311.693C211.416 316.929 218.539 319.027 235.529 326.113C252.519 333.199 250.558 319.698 240.43 315.626L240.299 315.573C230.294 311.55 229.289 311.145 219.607 310.701Z" fill="#FFA1BC"/>
<path d="M219.479 313.105C209.164 310.532 207.271 311.588 204.532 312.112C210.536 318.195 220.278 323.527 230.47 328.617C240.662 333.707 260.743 323.639 236.715 318.87C212.686 314.1 227.347 315.067 219.479 313.105Z" fill="#FFA1BC"/>
<path d="M221.311 311.808C211.751 311.203 210.234 311.701 207.846 312.431C213.898 317.144 220.3 319.106 235.558 325.616C250.815 332.126 249.128 320.231 240.033 316.483L239.915 316.435C230.929 312.733 230.027 312.361 221.311 311.808Z" fill="#FFA1BC"/>
<path d="M220.513 313.56C211.002 311.067 209.248 311.985 206.715 312.411C212.223 317.993 221.188 322.963 230.57 327.722C239.952 332.481 258.56 323.755 236.397 319.048C214.234 314.341 227.768 315.462 220.513 313.56Z" fill="#FFA1BC"/>
<path d="M312.872 501.937C302.905 508.346 301.764 509.975 299.928 512.484C309.447 512.883 317.275 510.193 337.289 505.671C357.304 501.148 346.81 490.143 334.977 492.977L334.824 493.013C323.134 495.812 321.96 496.094 312.872 501.937Z" fill="#FFA1BC"/>
<path d="M310.881 501.965C300.316 507.331 298.293 513.219 299.389 513.524C305.784 517.959 324.773 513.11 338.827 509.759C352.88 506.408 354.661 480.513 327.942 493.731C301.223 506.949 314.321 500.218 310.881 501.965Z" fill="#FFA1BC"/>
<path d="M341.077 247.576C334.598 244.326 326.741 241.806 331.292 244.502C333.987 249.547 338.038 252.686 346.577 261.698C355.117 270.71 357.214 262.305 352.08 257.025C346.946 251.745 347.01 250.552 341.077 247.576Z" fill="#FFA1BC"/>
<path d="M340.305 249.083C334.62 244.657 333.134 244.769 331.275 244.323C333.256 249.671 337.819 256.13 342.815 261.793C347.81 267.456 363.129 267.209 349.531 257.639C335.932 248.069 344.642 252.458 340.305 249.083Z" fill="#FFA1BC"/>
<path d="M339.448 249.315C333.762 244.889 332.277 245.001 330.417 244.555C332.398 249.904 336.962 256.362 341.957 262.026C346.953 267.689 362.272 267.441 348.673 257.871C335.075 248.301 343.784 252.691 339.448 249.315Z" fill="#FFA1BC"/>
<path d="M339.001 247.429C332.522 244.179 331.891 243.77 329.986 243.567C332.681 248.612 336.732 251.751 345.271 260.762C353.811 269.774 355.908 261.37 350.774 256.09C345.64 250.809 344.934 250.405 339.001 247.429Z" fill="#FFA1BC"/>
<path d="M338.14 248.379C332.455 243.953 331.187 243.564 329.327 243.118C331.308 248.467 335.654 255.426 340.65 261.089C345.645 266.752 360.964 266.505 347.366 256.935C333.767 247.365 342.477 251.755 338.14 248.379Z" fill="#FFA1BC"/>
<path d="M197.274 379.921C186.224 379.413 182.632 381.603 179.879 382.521C184.992 390.079 192.303 392.628 209.981 400.001C227.66 407.375 233.976 388.713 221.995 384.454C210.014 380.194 207.393 380.386 197.274 379.921Z" fill="#FFA1BC"/>
<path d="M262.327 263.235C252.206 259.98 247.658 262.004 244.89 262.345C252.7 270.631 258.88 276.102 269.332 282.496C279.784 288.89 289.324 275.231 277.422 269.425C265.52 263.619 270.046 265.718 262.327 263.235Z" fill="#FFA1BC"/>
</svg>
