<svg width="792" height="964" viewBox="0 0 792 964" fill="none" xmlns="http://www.w3.org/2000/svg">
<ellipse cx="322.113" cy="754.109" rx="34.5948" ry="95.8011" transform="rotate(162.075 322.113 754.109)" fill="#C8E4FF"/>
<ellipse cx="147.857" cy="126.472" rx="34.5948" ry="95.801" transform="rotate(166.334 147.857 126.472)" fill="#C8E4FF"/>
<rect x="372.36" y="670.563" width="151.685" height="516.261" rx="75.8425" transform="rotate(164.371 372.36 670.563)" fill="#C8E4FF"/>
<path d="M471.76 302.328C483.398 300.588 579.941 298.969 609.414 298.681L609.414 267.684L605.207 207.787L573.5 144.5C557.024 138.878 522.317 157.165 513.399 159.963C502.253 163.459 499.37 166.379 450.621 182.598C425.499 190.957 487.498 169.777 385.977 202.895C369.836 208.161 341.369 219.235 275.98 228.824C249.696 232.678 208.096 225.281 194.532 230.969C180.967 236.658 159.149 257.538 154.03 267.684C148.911 277.83 142.358 293.683 154.244 310.439C166.13 327.196 172.932 329.84 188.123 338.094C203.314 346.348 227.651 366.002 242.878 357.374C274.943 339.205 291.278 335.794 307.515 331.402C340.035 322.606 360.558 319.271 376.919 315.452C393.28 311.634 460.122 304.067 471.76 302.328Z" fill="#FFA1BC"/>
<ellipse cx="173.441" cy="390.504" rx="4.89546" ry="15.5023" transform="rotate(-131.762 173.441 390.504)" fill="white"/>
<ellipse cx="120.85" cy="335.543" rx="4.89546" ry="15.5023" transform="rotate(-108.552 120.85 335.543)" fill="white"/>
<ellipse cx="120.36" cy="253.4" rx="4.89546" ry="15.5023" transform="rotate(-79.305 120.36 253.4)" fill="white"/>
<ellipse cx="170.893" cy="210.994" rx="4.89546" ry="15.5023" transform="rotate(-60.937 170.893 210.994)" fill="white"/>
<path d="M194.598 326.434C216.885 313.962 262.834 307.448 272.243 324.262C281.652 341.076 250.958 374.85 228.67 387.322C206.382 399.794 180.687 396.275 171.278 379.461C161.869 362.648 172.31 338.907 194.598 326.434Z" fill="#FFA1BC"/>
<path d="M237.607 278.13C263.115 276.849 307.179 291.411 308.146 310.654C309.113 329.897 266.616 346.534 241.108 347.816C215.599 349.097 194.137 334.536 193.171 315.293C192.204 296.05 212.099 279.412 237.607 278.13Z" fill="#FFA1BC"/>
<ellipse cx="162.016" cy="317.218" rx="32.3391" ry="42.8683" transform="rotate(-102.191 162.016 317.218)" fill="#FFA1BC"/>
<ellipse cx="159.813" cy="262.786" rx="28.1989" ry="37.3801" transform="rotate(-86.1272 159.813 262.786)" fill="#FFA1BC"/>
<path d="M219.334 206.08C257.923 221.767 271.16 241.12 267.497 253.093C263.835 265.066 208.322 255.651 192.45 250.796C176.578 245.941 166.681 232.299 170.344 220.325C174.006 208.352 203.463 201.225 219.334 206.08Z" fill="#FFA1BC"/>
<path d="M200.098 319.956C220.396 309.661 261.589 305.621 269.408 321.037C277.227 336.453 248.711 365.487 228.413 375.782C208.116 386.077 185.323 381.926 177.503 366.51C169.684 351.094 179.8 330.251 200.098 319.956Z" fill="#FFA1BC"/>
<path d="M176.053 277.399C200.043 273.588 243.265 283.316 246.222 301.929C249.178 320.543 210.751 340.993 186.761 344.804C162.771 348.616 140.926 336.616 137.969 318.003C135.012 299.389 152.063 281.211 176.053 277.399Z" fill="#FFA1BC"/>
<path d="M195.187 238.86C219.382 241.021 258.921 261.005 257.245 279.777C255.569 298.549 213.311 309 189.117 306.84C164.922 304.679 146.668 287.71 148.344 268.938C150.02 250.166 170.993 236.699 195.187 238.86Z" fill="#FFA1BC"/>
<path d="M250.139 231.89C274.225 228.739 317.163 239.65 319.608 258.337C322.053 277.025 283.078 296.412 258.993 299.563C234.907 302.714 213.4 290.119 210.955 271.432C208.511 252.744 226.054 235.041 250.139 231.89Z" fill="#FFA1BC"/>
<path d="M499.313 585.866C470.406 616.753 314.024 705.625 300.851 716.206C279.145 733.641 277.432 718.325 295.991 700.205C302.731 693.624 300.173 696.617 317.219 677.371C334.266 658.126 337.15 655.165 314.213 662.26C295.462 668.061 278.19 677.8 254.905 689.586C231.619 701.371 245.626 694.782 220.927 706.297C196.229 717.812 196.003 713.689 219.977 690.465C234.104 676.781 277.574 651.879 297.75 639.549C302.499 634.806 312.616 624.479 292.077 629.991C263.931 637.544 243.813 646.402 209.653 655.407C173.9 664.832 174.616 665.2 172.607 662.497C170.598 659.794 138.68 670.391 172.856 647.905C191.067 635.924 192.236 638.42 222.604 626.24C253.03 614.036 272 609.806 279.43 601.709C286.623 593.87 274.638 581.715 267.138 581C259.637 580.285 272.979 578.648 224.463 585.562C198.317 589.288 202.743 588.451 179.6 592.712C156.456 596.973 154.621 598.118 142.447 597.649C135.535 597.382 130.671 597.529 128.355 596.941C124.453 596.573 125.737 595.703 126.867 595.314C127.293 593.632 128.446 587.49 136.263 583.12C147.777 576.683 167.179 571.107 176.129 567.476C185.079 563.844 221.134 555.687 240.907 551.319C260.681 546.952 279.355 541.311 295.752 532.101C324.579 515.91 329.41 513.068 315.324 504.406C294.195 491.411 296.77 495.548 276.385 484.567C256 473.585 249.545 468.999 249.545 468.999C249.545 468.999 216.158 451.239 281.054 462.972C326.697 471.225 333.877 471.915 395.418 478.862C416.152 481.203 406.603 475.574 472.472 487.629L626.392 442.373L655.281 562.156L556.693 577.953L499.313 585.866Z" fill="white"/>
<path d="M165.277 665.667C154.685 666.571 152.982 666.039 150.304 665.261C156.849 659.765 163.884 657.389 180.583 649.643C197.282 641.896 195.852 655.463 185.892 659.929L185.763 659.987C175.923 664.4 174.935 664.843 165.277 665.667Z" fill="#FFA1BC"/>
<path d="M165.055 663.27C154.849 666.245 152.916 665.264 150.159 664.848C155.92 658.534 165.445 652.825 175.43 647.339C185.414 641.854 205.875 651.126 182.052 656.834C158.229 662.542 172.84 661.001 165.055 663.27Z" fill="#FFA1BC"/>
<path d="M166.937 664.494C157.408 665.474 155.873 665.036 153.458 664.399C159.321 659.453 165.641 657.241 180.632 650.138C195.622 643.036 194.403 654.988 185.462 659.089L185.346 659.142C176.512 663.193 175.625 663.6 166.937 664.494Z" fill="#FFA1BC"/>
<path d="M166.071 662.774C156.665 665.639 154.877 664.789 152.329 664.464C157.614 658.669 166.377 653.352 175.565 648.229C184.753 643.105 203.689 651.096 181.728 656.668C159.766 662.24 173.246 660.589 166.071 662.774Z" fill="#FFA1BC"/>
<path d="M250.975 470.923C240.764 464.909 239.559 463.326 237.627 460.892C247.122 460.119 255.05 462.5 275.226 466.234C295.403 469.969 285.348 481.377 273.413 479.009L273.259 478.979C261.468 476.64 260.284 476.405 250.975 470.923Z" fill="#FFA1BC"/>
<path d="M248.984 470.972C238.216 466.024 235.964 460.221 237.047 459.872C243.263 455.19 262.428 459.291 276.602 462.089C290.776 464.886 293.571 490.692 266.354 478.531C239.138 466.371 252.49 472.583 248.984 470.972Z" fill="#FFA1BC"/>
<path d="M289.129 723.982C282.783 727.483 275.03 730.309 279.472 727.437C281.967 722.29 285.892 718.995 294.071 709.655C302.251 700.316 304.676 708.631 299.753 714.109C294.83 719.586 294.941 720.775 289.129 723.982Z" fill="#FFA1BC"/>
<path d="M288.298 722.506C282.791 727.151 281.302 727.098 279.461 727.616C281.231 722.194 285.538 715.561 290.307 709.707C295.077 703.852 310.394 703.499 297.181 713.595C283.968 723.69 292.499 718.963 288.298 722.506Z" fill="#FFA1BC"/>
<path d="M287.433 722.308C281.925 726.953 280.437 726.899 278.596 727.418C280.366 721.996 284.673 715.363 289.442 709.508C294.212 703.654 309.529 703.301 296.316 713.396C283.103 723.492 291.634 718.764 287.433 722.308Z" fill="#FFA1BC"/>
<path d="M287.06 724.21C280.714 727.711 280.098 728.145 278.203 728.422C280.699 723.276 284.623 719.98 292.803 710.641C300.982 701.301 303.408 709.617 298.484 715.094C293.561 720.572 292.872 721.003 287.06 724.21Z" fill="#FFA1BC"/>
<path d="M286.163 723.295C280.656 727.94 279.404 728.379 277.564 728.897C279.334 723.475 283.403 716.35 288.173 710.496C292.942 704.641 308.259 704.288 295.046 714.384C281.834 724.479 290.364 719.752 286.163 723.295Z" fill="#FFA1BC"/>
<path d="M140.248 597.375C129.226 598.316 125.551 596.268 122.764 595.46C127.577 587.707 134.782 584.873 152.158 576.812C169.534 568.752 176.577 587.151 164.772 591.877C152.967 596.604 150.34 596.514 140.248 597.375Z" fill="#FFA1BC"/>
<path d="M209.825 711.422C199.84 715.071 195.216 713.227 192.437 712.995C199.916 704.409 205.877 698.7 216.07 691.901C226.263 685.102 236.331 698.376 224.666 704.645C213.001 710.913 217.442 708.638 209.825 711.422Z" fill="#FFA1BC"/>
</svg>
