<svg width="505" height="617" viewBox="0 0 505 617" fill="none" xmlns="http://www.w3.org/2000/svg">
<path d="M82.552 402.382H431.098L368.698 602.293C368.698 602.293 360.421 616.652 257.78 616.652C155.139 616.652 147.337 602.293 147.337 602.293L82.552 402.382Z" fill="#FFA1BC"/>
<path d="M455.608 383.157C455.608 434.226 366.906 475.626 257.487 475.626C148.068 475.626 59.366 434.226 59.366 383.157C125.854 181.347 148.068 373.709 257.487 373.709C366.906 373.709 366.285 173.247 455.608 383.157Z" fill="#FFE9AF"/>
<ellipse cx="257.107" cy="311.781" rx="161.719" ry="92.9537" transform="rotate(-4.35503 257.107 311.781)" fill="white"/>
<path d="M389.119 223.911C390.974 256.11 337.932 263.806 267.246 267.878C196.56 271.95 144.52 270.51 142.665 238.311C140.81 206.112 189.843 155.346 260.529 151.274C331.215 147.202 387.264 191.712 389.119 223.911Z" fill="white"/>
<path d="M362.071 152.679C363.468 176.596 322.128 198.467 269.736 201.528C217.343 204.589 173.738 187.682 172.34 163.764C225.551 19.9617 379.344 63.2436 368.995 63.8482C290.188 101.336 360.673 128.761 362.071 152.679Z" fill="white"/>
<rect x="139.74" y="299.523" width="7.75212" height="25.8404" rx="3.87606" transform="rotate(-17.1799 139.74 299.523)" fill="#FE82B4"/>
<rect x="178.301" y="349.264" width="7.75212" height="25.8404" rx="3.87606" transform="rotate(39.6511 178.301 349.264)" fill="#FE82B4"/>
<rect x="300.141" y="299.14" width="7.75212" height="25.8404" rx="3.87606" transform="rotate(39.6511 300.141 299.14)" fill="#FFE9AF"/>
<rect x="330.296" y="372.854" width="7.75211" height="25.8404" rx="3.87606" transform="rotate(96.8768 330.296 372.854)" fill="#FFE9AF"/>
<rect x="174.067" y="256.815" width="7.75212" height="25.8404" rx="3.87606" transform="rotate(61.0588 174.067 256.815)" fill="#FFE9AF"/>
<rect x="239.912" y="139.458" width="7.75211" height="25.8404" rx="3.87606" transform="rotate(96.8768 239.912 139.458)" fill="#FE82B4"/>
<rect x="313.297" y="159.652" width="7.75213" height="25.8404" rx="3.87606" transform="rotate(136.087 313.297 159.652)" fill="#FE82B4"/>
<rect x="303.081" y="79.1484" width="7.75211" height="25.8404" rx="3.87606" transform="rotate(56.6822 303.081 79.1484)" fill="#FFA1BC"/>
<rect x="251.286" y="396.77" width="7.75213" height="25.8404" rx="3.87606" transform="rotate(136.087 251.286 396.77)" fill="#FFA1BC"/>
<rect x="366.672" y="297.319" width="7.75213" height="25.8404" rx="3.87606" transform="rotate(136.087 366.672 297.319)" fill="#FFA1BC"/>
<rect x="377.297" y="321.264" width="7.75212" height="25.8404" rx="3.87606" transform="rotate(39.6511 377.297 321.264)" fill="#FE82B4"/>
<rect x="347.005" y="226.283" width="7.75212" height="25.8404" rx="3.87606" transform="rotate(39.6511 347.005 226.283)" fill="#FFA1BC"/>
<rect x="278.487" y="201.213" width="7.75212" height="25.8404" rx="3.87606" transform="rotate(-39.0746 278.487 201.213)" fill="#FFA1BC"/>
<rect x="236.638" y="290.927" width="7.75212" height="25.8404" rx="3.87606" transform="rotate(39.6511 236.638 290.927)" fill="#FFA1BC"/>
<rect x="238.546" y="228.959" width="7.75212" height="25.8404" rx="3.87606" transform="rotate(118.332 238.546 228.959)" fill="#FE82B4"/>
</svg>
