<svg width="849" height="779" viewBox="0 0 849 779" fill="none" xmlns="http://www.w3.org/2000/svg">
<path d="M499.362 683.933C536.415 707.967 579.242 714.616 588.52 707.677C593.689 699.884 589.815 675.999 588.124 658.807C586.433 641.615 576.151 621.014 574.463 613.255C591.385 592.502 627.606 578.862 651.237 539.8C680.777 490.973 679.773 450.248 694.246 446.756C708.503 443.316 717.428 442.837 759.477 427.364C803.71 411.088 749.481 372.218 736.626 361.71C700.243 331.968 685.589 327.278 658.402 318.915C631.216 310.552 594.112 304.386 573.988 304.338C539.381 300.673 461.218 286.646 425.415 259.858C380.661 226.372 367.481 215.796 339.286 184.151C329.37 173.021 323.49 147.65 244.287 119.15C174.656 94.0947 44.6106 124.301 27.789 280.651C14.3317 405.732 141.714 463.802 180.789 471.651C278.315 486.49 264.543 463.166 306.025 488.247C326.512 500.634 349.473 519.986 369.952 539.256C388.01 567.882 404.637 591.052 412.754 602.23C440.239 640.08 453.045 653.891 499.362 683.933Z" fill="#FFA1BC"/>
<path d="M619.773 577.753C621.414 581.293 623.217 586.058 648.892 600.509C646.238 630.886 654.595 636.728 657.429 638.411C660.714 640.361 673.569 643.648 682.866 632.976C692.162 622.304 698.112 609.123 698.112 609.123C701.787 595.71 745.883 602.59 750.223 574.834C752.936 557.484 740.638 556.047 751.247 536.343C758.431 522.998 758.857 531.776 766.351 517.073C773.845 502.369 772.244 491.348 760.337 486.255C748.43 481.161 743.873 483.195 726.903 488.325C722.395 489.688 719.137 490.593 716.506 491.086C713.504 491.487 708.772 491.52 703.168 489.439C702 489.005 692.235 487.056 689.04 485.593C674.488 478.929 676.705 479.945 676.705 479.945C676.705 479.945 673.65 493.749 673.35 494.671C668.25 510.352 659.941 524.115 652.323 536.66C644.886 548.907 629.674 566.236 621.09 573.569C619.106 575.265 617.777 574.741 619.773 577.753Z" fill="white"/>
</svg>
