<svg width="611" height="741" viewBox="0 0 611 741" fill="none" xmlns="http://www.w3.org/2000/svg">
<ellipse cx="286.308" cy="248.319" rx="6.00789" ry="16.3851" transform="rotate(-180 286.308 248.319)" fill="#FFA1BC"/>
<ellipse cx="193.458" cy="239.033" rx="7.10023" ry="19.116" transform="rotate(149.524 193.458 239.033)" fill="#FFA1BC"/>
<ellipse cx="126.004" cy="307.671" rx="7.10024" ry="19.116" transform="rotate(132.839 126.004 307.671)" fill="#FFA1BC"/>
<ellipse cx="123.373" cy="422.244" rx="7.10023" ry="19.116" transform="rotate(108.737 123.373 422.244)" fill="#FFA1BC"/>
<path d="M597.5 535.001C567.46 530.086 338.419 387.739 334.346 363.421C330.81 370.601 328.934 372.257 333.825 364.107C333.976 363.855 327.817 364.107 334.346 363.421C341.378 345.537 344.748 328.605 342.017 300.751C339.286 272.896 311.432 254.872 295.047 252.687C287.349 251.661 284.504 251.994 281.938 253.49C280.17 254.521 287.4 249.957 275.384 261.426C263.369 272.896 242.821 238.908 222.952 231.387C213.96 227.983 195.643 224.833 189.089 246.133C182.535 267.434 183.081 281.635 184.72 287.096C186.358 292.558 194.607 301.175 172.704 300.751C148.915 300.289 149.765 299.03 139.388 300.751C129.01 302.471 119.179 312.766 119.179 327.513C119.179 342.26 124.095 351.545 139.388 372.299C154.68 393.054 156.865 399.061 143.211 404.523C129.556 409.985 127.918 413.262 125.187 415.993C122.456 418.724 109.348 431.832 139.388 456.41C169.427 480.987 237.698 456.409 254.63 480.987C271.561 505.565 520.223 737.815 523.5 740C526.121 741.748 557.5 715.5 597.5 662.5C597.5 662.5 627.539 539.917 597.5 535.001Z" fill="#FFE9AF"/>
<path d="M183.147 437.099C181.604 444.411 168.83 449.821 157.382 447.405C145.934 444.989 138.662 433.533 140.205 426.221C141.748 418.909 156.813 417.507 168.26 419.923C179.708 422.339 184.69 429.788 183.147 437.099Z" fill="#FFA1BC"/>
<path d="M187.926 352.356C183.077 360.428 163.721 375.414 151.083 367.821C138.446 360.228 136.42 329.783 141.27 321.711C146.119 313.64 164.637 318.176 177.274 325.769C189.912 333.362 192.776 344.284 187.926 352.356Z" fill="#FFA1BC"/>
<path d="M230.524 311.188C242.127 307.563 248.92 286.043 243.244 267.876C237.567 249.71 217.893 239.699 206.29 243.325C194.688 246.95 194.738 271.562 200.415 289.728C206.091 307.894 218.922 314.814 230.524 311.188Z" fill="#FFA1BC"/>
<path d="M299.369 318.906C308.104 317.749 315.613 303.217 313.801 289.541C311.99 275.865 299.174 266.286 290.439 267.443C281.704 268.6 275.452 289.571 277.264 303.247C279.075 316.923 290.634 320.063 299.369 318.906Z" fill="#FFA1BC"/>
<path d="M231.843 446.053C267.776 446.053 313.418 416.573 305.964 365.148C298.197 336.669 282.663 341.2 236.061 335.375C208.23 337.316 199.461 350.43 201.11 380.682C202.76 410.934 191.714 437.639 231.843 446.053Z" fill="#FFA1BC"/>
<rect x="240.335" y="214.271" width="30.2022" height="251.452" rx="15.1011" transform="rotate(16.1084 240.335 214.271)" fill="white"/>
<ellipse cx="280.329" cy="140.121" rx="56.7897" ry="88.2465" transform="rotate(18.8157 280.329 140.121)" fill="white"/>
</svg>
