<svg width="850" height="613" viewBox="0 0 850 613" fill="none" xmlns="http://www.w3.org/2000/svg">
<rect width="24.3664" height="204.151" rx="12.1832" transform="matrix(-0.275269 0.961367 0.961367 0.275269 438.241 302.91)" fill="white"/>
<rect x="743.9" y="431.152" width="14.5864" height="88.8445" rx="7.2932" transform="rotate(107.504 743.9 431.152)" fill="white"/>
<rect x="753.475" y="400.801" width="14.5864" height="88.8445" rx="7.2932" transform="rotate(107.504 753.475 400.801)" fill="white"/>
<rect x="763.045" y="370.451" width="14.5864" height="88.8445" rx="7.2932" transform="rotate(107.504 763.045 370.451)" fill="white"/>
<rect x="718.685" y="356.52" width="78.2362" height="86.1924" rx="39.1181" transform="rotate(107.504 718.685 356.52)" fill="white"/>
<path d="M220.241 306.928C209.709 304.046 120.933 291.943 93.808 288.439L57.5195 254.779L71.2319 242.857L107.674 205.153L140.241 176.838C156.039 173.469 189.613 167.62 197.522 171.178C207.408 175.625 209.743 178.632 252.877 198.934C275.106 209.397 220.308 183.068 310.209 224.741C324.502 231.366 349.514 244.699 408.71 260.721C432.503 267.161 471.646 264.917 483.519 271.649C495.392 278.382 513.201 300.018 516.802 309.929C520.403 319.841 524.699 335.167 511.906 349.3C499.112 363.433 492.554 365.122 477.65 371.057C462.746 376.993 438.162 392.427 425.08 382.803C397.533 362.538 382.857 357.601 368.379 351.77C339.382 340.091 320.839 334.762 306.184 329.445C291.529 324.128 230.773 309.811 220.241 306.928Z" fill="#FFA1BC"/>
<ellipse rx="4.54261" ry="14.3849" transform="matrix(0.749698 -0.66178 -0.66178 -0.749698 485.419 420.961)" fill="white"/>
<ellipse rx="4.54261" ry="14.3849" transform="matrix(0.428218 -0.903675 -0.903675 -0.428218 539.916 376.103)" fill="white"/>
<ellipse rx="4.54261" ry="14.3849" transform="matrix(-0.067886 -0.997693 -0.997693 0.067886 549.395 300.472)" fill="white"/>
<ellipse rx="4.54261" ry="14.3849" transform="matrix(-0.37882 -0.92547 -0.92547 0.37882 507.496 255.844)" fill="white"/>
<path d="M472.967 359.603C453.802 345.662 412.182 334.61 401.664 349.068C391.147 363.526 415.715 398.018 434.881 411.96C454.046 425.901 478.108 425.483 488.625 411.025C499.143 396.567 492.132 373.545 472.967 359.603Z" fill="#FFA1BC"/>
<path d="M438.646 310.371C415.284 306.386 373.083 314.96 370.077 332.584C367.072 350.209 404.399 370.209 427.761 374.193C451.124 378.177 472.499 367.12 475.505 349.496C478.51 331.872 462.008 314.355 438.646 310.371Z" fill="#FFA1BC"/>
<path d="M458.245 312.968C434.883 308.984 392.683 317.558 389.677 335.182C386.671 352.806 423.999 372.806 447.361 376.791C470.723 380.775 492.099 369.718 495.104 352.094C498.11 334.47 481.608 316.953 458.245 312.968Z" fill="#FFA1BC"/>
<ellipse rx="30.0082" ry="39.7785" transform="matrix(0.325461 -0.945555 -0.945555 -0.325461 504.001 354.694)" fill="#FFA1BC"/>
<ellipse rx="26.1664" ry="34.6859" transform="matrix(0.0511088 -0.998693 -0.998693 -0.0511088 512.014 304.783)" fill="#FFA1BC"/>
<path d="M463.402 245.991C426.122 256.204 411.799 272.581 413.858 284.016C415.916 295.45 468.1 292.876 483.258 290.147C498.416 287.418 509.034 275.936 506.976 264.502C504.917 253.067 478.559 243.262 463.402 245.991Z" fill="#FFA1BC"/>
<path d="M468.612 353.031C451.042 341.314 413.53 333.064 404.632 346.409C395.733 359.754 418.816 389.64 436.387 401.356C453.957 413.073 475.415 411.753 484.314 398.408C493.213 385.064 486.183 364.747 468.612 353.031Z" fill="#FFA1BC"/>
<path d="M495.442 316.462C473.757 310.313 432.863 314.526 428.093 331.351C423.323 348.176 456.482 371.243 478.167 377.391C499.852 383.539 521.299 374.884 526.069 358.059C530.839 341.234 517.127 322.61 495.442 316.462Z" fill="#FFA1BC"/>
<path d="M482.048 278.85C459.518 278.181 420.89 292.249 420.371 309.73C419.853 327.211 457.639 341.484 480.17 342.153C502.7 342.821 521.384 329.192 521.903 311.712C522.422 294.231 504.578 279.518 482.048 278.85Z" fill="#FFA1BC"/>
<path d="M457.375 259.988C434.845 259.32 396.217 273.388 395.698 290.869C395.18 308.349 432.967 322.623 455.497 323.292C478.027 323.96 496.711 310.331 497.23 292.85C497.749 275.37 479.905 260.657 457.375 259.988Z" fill="#FFA1BC"/>
<path d="M432.182 266.388C410.336 260.837 369.574 266.171 365.268 283.121C360.961 300.071 394.741 322.218 416.587 327.768C438.433 333.319 459.634 324.078 463.94 307.128C468.247 290.178 454.028 271.938 432.182 266.388Z" fill="#FFA1BC"/>
</svg>
