<svg width="750" height="784" viewBox="0 0 750 784" fill="none" xmlns="http://www.w3.org/2000/svg">
<rect x="537.746" y="488.218" width="29.6992" height="247.264" rx="14.8496" transform="rotate(72.3277 537.746 488.218)" fill="white"/>
<ellipse cx="620.221" cy="480.361" rx="55.8438" ry="86.7767" transform="rotate(75.035 620.221 480.361)" fill="white"/>
<path d="M196.69 316.78C178.69 290.78 189.19 283.28 129.69 218.78L73.7192 179.761L46.8242 195.78L29.7326 226.78L29.7328 293.05C32.6673 309.467 31.5596 325.938 38.1899 331.78C46.478 339.082 58.9956 357.744 96.0432 389.197C115.135 405.406 67.5411 365.691 144.125 431.537C156.301 442.006 179.319 459.538 218.507 508.069C234.259 527.576 247.536 565.486 258.86 573.625C270.183 581.765 298.525 588.744 309.704 587.646C320.884 586.548 337.669 583.652 346.517 565.189C355.366 546.726 354.434 539.78 354.38 523.042C354.325 506.305 359.79 476.14 345.142 468.171C314.298 451.391 303.632 439.797 292.165 428.794C269.199 406.757 256.618 391.695 245.587 380.292C234.556 368.889 203.003 325.899 196.69 316.78Z" fill="#FFA1BC"/>
<path d="M17.3163 292.449C19.7161 312.049 41.3162 336.282 51.8163 345.948L124.817 248.448L131.19 220.28C119.19 207.614 78.1899 176.68 66.1899 178.28C51.1899 180.28 28.3168 189.448 17.3163 208.948C6.31579 228.448 14.3165 267.948 17.3163 292.449Z" fill="#FFA1BC"/>
<ellipse rx="4.84839" ry="14.9511" transform="matrix(-0.332412 0.943134 -0.961943 -0.273249 406.569 507.746)" fill="white"/>
<ellipse rx="4.93428" ry="14.6666" transform="matrix(-0.662935 0.748677 -0.764104 -0.645093 383.974 579.44)" fill="white"/>
<ellipse rx="4.91074" ry="14.7456" transform="matrix(-0.933296 0.359107 -0.319909 -0.947448 313.286 622.648)" fill="white"/>
<ellipse rx="4.82742" ry="15.019" transform="matrix(-0.998275 0.0587048 0.00642806 -0.999979 252.787 603.384)" fill="white"/>
<path d="M341.25 523.817C319.946 512.072 292.602 477.852 302.671 461.387C312.741 444.922 356.409 452.447 377.714 464.192C399.018 475.937 408.125 498.806 398.056 515.27C387.987 531.735 362.554 535.562 341.25 523.817Z" fill="#FFA1BC"/>
<path d="M279.215 513.784C266.051 493.571 257.794 449.91 273.952 439.09C290.109 428.27 324.562 454.388 337.726 474.601C350.89 494.815 348.464 519.973 332.306 530.793C316.149 541.613 292.379 533.998 279.215 513.784Z" fill="#FFA1BC"/>
<path d="M289.526 531.078C276.362 510.865 268.105 467.204 284.262 456.384C300.42 445.564 334.872 471.682 348.037 491.895C361.201 512.109 358.775 537.267 342.617 548.087C326.46 558.907 302.69 551.292 289.526 531.078Z" fill="#FFA1BC"/>
<ellipse rx="32.6478" ry="40.4746" transform="matrix(-0.73706 0.675828 -0.682475 -0.730909 348.699 555.29)" fill="#FFA1BC"/>
<ellipse rx="28.3955" ry="35.3955" transform="matrix(-0.887159 0.461465 -0.436483 -0.899713 302.741 585.463)" fill="#FFA1BC"/>
<path d="M225.642 566.29C220.946 526.526 231.398 505.604 243.466 502.362C255.535 499.12 273.647 549.471 276.958 564.994C280.269 580.517 273.169 595.729 261.1 598.97C249.031 602.212 228.953 581.813 225.642 566.29Z" fill="#FFA1BC"/>
<path d="M333.058 522.69C314.575 511.44 291.615 479.824 301.229 465.389C310.843 450.954 349.39 459.166 367.873 470.416C386.357 481.667 393.547 502.489 383.933 516.924C374.319 531.359 351.542 533.941 333.058 522.69Z" fill="#FFA1BC"/>
<path d="M307.682 564.556C293.051 546.903 281.019 506.452 295.692 494.33C310.365 482.209 346.186 503.009 360.817 520.661C375.447 538.313 375.413 562.449 360.74 574.57C346.068 586.692 322.313 582.208 307.682 564.556Z" fill="#FFA1BC"/>
<path d="M265.361 568.975C255.79 548.044 254.354 505.261 271.354 496.85C288.354 488.439 317.352 517.584 326.924 538.516C336.495 559.448 330.473 583.236 313.473 591.647C296.473 600.058 274.933 589.907 265.361 568.975Z" fill="#FFA1BC"/>
<path d="M237.038 554.269C227.467 533.337 226.031 490.555 243.031 482.144C260.031 473.733 289.029 502.878 298.601 523.81C308.172 544.742 302.15 568.529 285.15 576.941C268.15 585.352 246.61 575.201 237.038 554.269Z" fill="#FFA1BC"/>
<path d="M233.369 527.621C219.263 509.547 208.386 468.711 223.365 456.97C238.344 445.229 273.507 467.03 287.613 485.105C301.718 503.18 301.01 527.35 286.031 539.09C271.052 550.831 247.475 545.696 233.369 527.621Z" fill="#FFA1BC"/>
</svg>
