<svg width="153" height="71" viewBox="0 0 153 71" fill="none" xmlns="http://www.w3.org/2000/svg">
<path fill-rule="evenodd" clip-rule="evenodd" d="M7.47441 19.6349L4.44575 19.6349L4.44575 34.7952L0.000488706 34.7952L0.000488281 0.302734L4.44575 0.302734L4.44575 14.1182L7.47441 14.1182L7.47441 0.302734L11.9192 0.302735L11.9192 34.7952L7.47441 34.7952L7.47441 19.6349Z" fill="#FFA1BC"/>
<path fill-rule="evenodd" clip-rule="evenodd" d="M19.7119 35.2488L18.8363 35.2488C15.2544 35.2488 13.3442 32.9739 13.3442 28.7006L13.3442 21.7805L17.8018 21.7805L17.8018 27.8187C17.8018 29.3976 18.2394 30.2331 19.2743 30.2331C20.3486 30.2331 20.7469 29.3976 20.7469 27.261L20.7469 26.4715C20.7469 24.0106 20.5478 23.1282 18.9164 20.6668L16.0504 16.394C14.1403 13.5143 13.5832 11.2853 13.5832 7.84845L13.5832 6.73419C13.5832 2.13611 15.5725 1.69631e-08 19.115 4.39305e-08L19.9509 5.02934e-08C23.6517 7.84665e-08 25.0845 1.90375 25.0845 5.99117L25.0845 11.657L20.7469 11.657L20.7469 6.68772C20.7469 5.52644 20.5478 4.64401 19.473 4.64401C18.3987 4.64401 18.1597 5.4335 18.1597 7.05896L18.1597 7.70957C18.1597 9.66034 18.4783 10.7281 19.9902 13.0037L22.8557 17.3229C24.8853 20.3879 25.5221 22.1533 25.5221 26.0538L25.5221 27.1691C25.5221 32.2303 23.6517 35.2488 19.7119 35.2488Z" fill="#FFA1BC"/>
<path fill-rule="evenodd" clip-rule="evenodd" d="M37.0757 0.302735L37.0757 5.30921L31.401 5.30921L31.401 14.3501L35.8537 14.3501L35.8537 19.5891L31.401 19.5891L31.401 29.5567L37.3119 29.5567L37.3119 34.7952L26.9478 34.7952L26.9478 0.302734L37.0757 0.302735Z" fill="#FFA1BC"/>
<path fill-rule="evenodd" clip-rule="evenodd" d="M48.9406 23.1591L47.7333 10.409L46.5667 23.1591L48.9406 23.1591ZM49.4228 28.3042L46.1243 28.3042L45.5209 34.7952L41.457 34.7952L45.1178 0.302734L50.5093 0.302735L54.4122 34.7952L50.0272 34.7952L49.4228 28.3042Z" fill="#FFA1BC"/>
<path fill-rule="evenodd" clip-rule="evenodd" d="M59.5901 14.4887L60.7926 14.4887C62.0351 14.4887 62.4363 13.5615 62.4363 12.0316L62.4363 7.21018C62.4363 5.72673 62.1555 4.98501 60.7926 4.98501L59.5901 4.98501L59.5901 14.4887ZM59.5901 34.7952L55.0601 34.7952L55.0601 0.302734L62.3966 0.302734C65.4028 0.302735 66.9262 1.78618 66.9262 5.63395L66.9262 11.7533C66.9262 14.6279 65.7634 15.7402 64.962 16.1578C65.9639 16.6675 66.9262 17.5953 66.9262 19.9127L66.9262 32.0133C66.9262 33.404 67.1664 34.0524 67.3674 34.5621L67.3674 34.7952L62.8771 34.7952C62.6765 34.424 62.4363 33.8215 62.4363 31.9669L62.4363 21.5823C62.4363 20.0519 62.1961 19.403 60.7524 19.403L59.5901 19.403L59.5901 34.7952Z" fill="#FFA1BC"/>
<path fill-rule="evenodd" clip-rule="evenodd" d="M75.7958 5.30921L75.7958 34.7952L71.3759 34.7952L71.3759 5.30921L67.6265 5.30921L67.6265 0.302734L79.5452 0.302735L79.5452 5.30921L75.7958 5.30921Z" fill="#FFA1BC"/>
<path fill-rule="evenodd" clip-rule="evenodd" d="M89.8789 23.1591L88.6715 10.409L87.5049 23.1591L89.8789 23.1591ZM90.3611 28.3042L87.062 28.3042L86.4586 34.7952L82.395 34.7952L86.0564 0.302734L91.4472 0.302735L95.3502 34.7952L90.965 34.7952L90.3611 28.3042Z" fill="#FFA1BC"/>
<path fill-rule="evenodd" clip-rule="evenodd" d="M100.154 0.302734L103.983 18.8004L103.983 0.302735L108.047 0.302735L108.047 34.7952L104.416 34.7952L100.154 14.9521L100.154 34.7952L96.1279 34.7952L96.1279 0.302734L100.154 0.302734Z" fill="#FFA1BC"/>
<path fill-rule="evenodd" clip-rule="evenodd" d="M114.35 29.7876L115.423 29.7876C116.773 29.7876 117.171 28.9536 117.171 27.0996L117.171 7.67409C117.171 5.68034 116.734 4.98501 115.621 4.98501L114.35 4.98501L114.35 29.7876ZM109.86 0.302734L116.734 0.302734C120.587 0.302735 121.779 2.8521 121.779 6.93237L121.779 27.9336C121.779 32.1519 120.428 34.7952 116.734 34.7952L109.86 34.7952L109.86 0.302734Z" fill="#FFA1BC"/>
<path fill-rule="evenodd" clip-rule="evenodd" d="M4.49006 65.3398L5.56253 65.3398C6.91328 65.3398 7.31084 64.5058 7.31084 62.6518L7.31084 43.226C7.31084 41.2327 6.87399 40.5368 5.76131 40.5368L4.49006 40.5368L4.49006 65.3398ZM0.000488281 35.8545L6.87399 35.8545C10.727 35.8545 11.9192 38.4044 11.9192 42.4837L11.9192 63.4863C11.9192 67.7042 10.5685 70.3469 6.87399 70.3469L0.000488706 70.3469L0.000488281 35.8545Z" fill="#FFA1BC"/>
<path fill-rule="evenodd" clip-rule="evenodd" d="M23.731 35.8545L23.731 40.8616L18.0567 40.8616L18.0567 49.9015L22.5095 49.9015L22.5095 55.1411L18.0567 55.1411L18.0567 65.1089L23.9676 65.1089L23.9676 70.3469L13.6035 70.3469L13.6035 35.8545L23.731 35.8545Z" fill="#FFA1BC"/>
<path fill-rule="evenodd" clip-rule="evenodd" d="M31.2422 70.8006L30.3665 70.8006C26.7847 70.8006 24.8745 68.5251 24.8745 64.252L24.8745 57.3326L29.332 57.3326L29.332 63.3701C29.332 64.949 29.7696 65.785 30.8041 65.785C31.8789 65.785 32.2772 64.949 32.2772 62.813L32.2772 62.0235C32.2772 59.5622 32.078 58.6798 30.4466 56.2184L27.5807 51.9452C25.6705 49.0662 25.1135 46.8377 25.1135 43.4016L25.1135 42.2863C25.1135 37.6883 27.1028 35.5518 30.6453 35.5518L31.4811 35.5518C35.182 35.5518 36.6147 37.4571 36.6147 41.5427L36.6147 47.2095L32.2772 47.2095L32.2772 42.2398C32.2772 41.0786 32.078 40.1962 31.0033 40.1962C29.9289 40.1962 29.69 40.9856 29.69 42.611L29.69 43.2616C29.69 45.2118 30.0086 46.2806 31.5205 48.5556L34.386 52.8741C36.4156 55.9396 37.0523 57.7044 37.0523 61.6058L37.0523 62.7206C37.0523 67.7816 35.182 70.8006 31.2422 70.8006Z" fill="#FFA1BC"/>
<mask id="mask0_165_209" style="mask-type:alpha" maskUnits="userSpaceOnUse" x="38" y="35" width="19" height="36">
<path d="M38.2349 35.5664L56.4122 35.5664L56.4122 70.7684L38.2349 70.7684L38.2349 35.5664Z" fill="#FFA1BC"/>
</mask>
<g mask="url(#mask0_165_209)">
<path fill-rule="evenodd" clip-rule="evenodd" d="M38.2349 70.3368L42.7692 70.3368L42.7692 35.8906L38.2349 35.8906L38.2349 70.3368Z" fill="#FFA1BC"/>
<path fill-rule="evenodd" clip-rule="evenodd" d="M48.668 70.8008C46.0199 70.8008 44.335 68.0694 44.335 64.5042L44.335 42.9743C44.335 39.1322 45.6189 35.5664 49.9123 35.5664L50.7946 35.5664C55.6502 35.5664 56.2118 39.2243 56.2118 43.2992L56.2118 46.8181L51.798 46.8181L51.798 42.928C51.798 41.4007 51.4768 40.5673 50.3539 40.5673C49.3908 40.5673 48.9491 41.4007 48.9491 42.928L48.9491 63.0691C48.9491 64.689 49.5107 65.5229 50.4338 65.5229C51.5977 65.5229 52.1187 64.5969 52.1187 63.3002L52.1187 54.6888L50.0724 54.6888L50.0724 49.4104L56.4121 49.4104L56.4121 70.3375L53.8443 70.3375C53.8041 70.1521 53.4432 68.4395 53.0819 66.9581C52.7607 68.1158 51.2358 70.8008 48.9491 70.8008L48.668 70.8008Z" fill="#FFA1BC"/>
</g>
<path fill-rule="evenodd" clip-rule="evenodd" d="M61.9352 35.8545L65.7638 54.3519L65.7638 35.8545L69.8284 35.8545L69.8284 70.3469L66.1978 70.3469L61.9352 50.5041L61.9352 70.3469L57.9097 70.3469L57.9097 35.8545L61.9352 35.8545Z" fill="#FFA1BC"/>
<path fill-rule="evenodd" clip-rule="evenodd" d="M81.6372 70.8006L80.7615 70.8006C77.1802 70.8006 75.2695 68.5251 75.2695 64.252L75.2695 57.3326L79.7271 57.3326L79.7271 63.3701C79.7271 64.949 80.1647 65.785 81.1996 65.785C82.2739 65.785 82.6717 64.949 82.6717 62.813L82.6717 62.0235C82.6717 59.5622 82.4731 58.6798 80.8407 56.2184L77.9757 51.9452C76.0656 49.0662 75.5085 46.8377 75.5085 43.4016L75.5085 42.2863C75.5085 37.6883 77.4983 35.5518 81.0403 35.5518L81.8762 35.5518C85.577 35.5518 87.0098 37.4571 87.0098 41.5427L87.0098 47.2095L82.6717 47.2095L82.6717 42.2398C82.6717 41.0786 82.4731 40.1962 81.3983 40.1962C80.3239 40.1962 80.0855 40.9856 80.0855 42.611L80.0855 43.2616C80.0855 45.2118 80.4036 46.2806 81.9155 48.5556L84.781 52.8741C86.8106 55.9396 87.4474 57.7044 87.4474 61.6058L87.4474 62.7206C87.4474 67.7816 85.577 70.8006 81.6372 70.8006Z" fill="#FFA1BC"/>
<path fill-rule="evenodd" clip-rule="evenodd" d="M96.026 63.3799L96.026 55.3564L100.403 55.3564L100.403 63.3335C100.403 67.0446 99.3775 70.8006 95.08 70.8006L94.0941 70.8006C89.5988 70.8006 88.6138 66.9977 88.6138 63.5196L88.6138 42.4625C88.6138 38.9386 89.9145 35.5518 93.9367 35.5518L94.9616 35.5518C99.851 35.5518 100.403 39.3558 100.403 42.7415L100.403 48.9092L96.026 48.9092L96.026 42.8338C96.026 41.3498 95.6319 40.5613 94.5285 40.5613C93.4238 40.5613 93.148 41.3039 93.148 42.8338L93.148 63.3335C93.148 64.8639 93.5816 65.6988 94.5675 65.6988C95.6319 65.6988 96.026 64.7711 96.026 63.3799Z" fill="#FFA1BC"/>
<path fill-rule="evenodd" clip-rule="evenodd" d="M109.301 55.1875L106.272 55.1875L106.272 70.3469L101.828 70.3469L101.828 35.8545L106.272 35.8545L106.272 49.6701L109.301 49.6701L109.301 35.8545L113.746 35.8545L113.746 70.3469L109.301 70.3469L109.301 55.1875Z" fill="#FFA1BC"/>
<path fill-rule="evenodd" clip-rule="evenodd" d="M123.157 43.2051C123.157 41.3962 122.64 40.5613 121.605 40.5613C120.45 40.5613 120.011 41.4431 120.011 43.2051L120.011 63.0556C120.011 64.5396 120.369 65.6988 121.644 65.6988C122.839 65.6988 123.157 64.5396 123.157 63.0556L123.157 43.2051ZM127.738 62.6848C127.738 67.5077 126.344 70.8006 122.003 70.8006L121.245 70.8006C116.944 70.8006 115.431 67.5077 115.431 62.6848L115.431 43.483C115.431 38.706 116.984 35.5518 121.205 35.5518L121.963 35.5518C126.344 35.5518 127.738 38.706 127.738 43.4366L127.738 62.6848Z" fill="#FFA1BC"/>
<path fill-rule="evenodd" clip-rule="evenodd" d="M136.761 43.2051C136.761 41.3962 136.243 40.5613 135.207 40.5613C134.052 40.5613 133.614 41.4431 133.614 43.2051L133.614 63.0556C133.614 64.5396 133.972 65.6988 135.247 65.6988C136.442 65.6988 136.761 64.5396 136.761 63.0556L136.761 43.2051ZM141.341 62.6848C141.341 67.5077 139.947 70.8006 135.605 70.8006L134.849 70.8006C130.547 70.8006 129.034 67.5077 129.034 62.6848L129.034 43.483C129.034 38.706 130.587 35.5518 134.809 35.5518L135.566 35.5518C139.947 35.5518 141.341 38.706 141.341 43.4366L141.341 62.6848Z" fill="#FFA1BC"/>
<path fill-rule="evenodd" clip-rule="evenodd" d="M147.516 35.8545L147.516 65.0156L153 65.0156L153 70.3469L143.025 70.3469L143.025 35.8545L147.516 35.8545Z" fill="#FFA1BC"/>
</svg>
