<svg width="253" height="287" viewBox="0 0 253 287" fill="none" xmlns="http://www.w3.org/2000/svg">
<path d="M190.651 22.1864C192.459 21.1437 194.734 22.3565 194.876 24.4386L200.329 104.494C200.487 106.826 197.904 108.329 195.956 107.038L128.812 62.5662C127.064 61.4088 127.145 58.8174 128.96 57.7702L190.651 22.1864Z" fill="#FF9EBA"/>
<path d="M69.8545 21.0819C68.1507 19.9154 65.812 20.9144 65.4768 22.9519L52.0191 104.757C51.6292 107.127 54.1907 108.869 56.2519 107.636L127.187 65.1811C128.952 64.1245 129.029 61.5946 127.331 60.4323L69.8545 21.0819Z" fill="#FF9EBA"/>
<path d="M124.341 243.627C151.078 243.627 166.419 231.608 170.364 207.571C170.803 204.045 171.405 200.093 172.172 195.713C174.254 183.213 175.295 174.346 175.295 169.111C175.295 137.809 160.073 103.718 143.886 84.5331C142.088 83.334 140.066 82.3624 138.641 81.6146C136.45 80.4394 134.094 79.8519 131.573 79.8519C129.601 79.8519 128.898 79.1373 122.303 79.8519C112.66 83.1637 110.912 83.8099 104.946 89.6271C97.4942 96.8917 91.5769 108.056 87.1937 123.119C82.8106 138.183 80.619 150.789 80.619 160.938L80.7833 178.886C80.7833 188.501 80.7833 193.647 81.5355 200.242C82.2877 203.839 82.8653 210.829 86.0431 217.667C89.6592 226.107 92.7275 231.822 95.2479 234.813C99.631 239.3 107.411 242.132 118.588 243.307C120.561 243.52 122.478 243.627 124.341 243.627ZM109.114 286.573C84.5331 282.976 69.8254 276.585 58.4292 260.133C54.7035 254.471 50.8134 245.443 46.759 233.051C42.7046 220.658 39.6911 208.426 37.7187 196.354C36.9516 191.226 36.5681 186.739 36.5681 182.893C36.5681 177.765 36.7934 166.341 38.218 163.671C37.8892 161.748 38.2118 167.028 38.2118 164.464C38.2118 158.802 39.198 150.415 41.1704 139.305C43.1428 128.194 46.3207 116.496 50.7038 104.21C55.1966 91.924 59.9085 84.0718 64.8396 80.6531C67.3599 73.2816 74.9756 66.0169 87.6868 58.8591C100.398 51.5944 112.616 47.3746 124.341 46.1994L133.381 45.5584C136.669 45.2379 139.518 45.0776 141.929 45.0776C144.23 45.1845 146.75 45.7187 149.49 46.6802C156.064 49.0305 162.858 52.4492 169.871 56.9361C179.405 63.1325 184.774 68.1002 185.979 71.8394C190.253 74.9375 193.869 80.1189 196.828 87.3836C199.896 94.5414 202.416 101.379 204.389 107.896C206.361 114.306 207.841 118.098 208.827 119.273C209.813 124.722 210.963 130.117 212.278 135.459C215.237 146.569 216.771 158 216.881 169.752C216.662 171.461 216.881 172.064 216.881 175.061C216.881 177.16 217.1 179.175 216.881 180.457C216.881 182.594 216.709 194.846 215.23 194.846C215.668 195.701 216.169 187.112 216.388 189.142C216.278 193.309 215.829 196.644 214.63 201.441C213.863 203.791 213.979 202.794 213.431 205.038C211.13 216.576 204.827 231.555 197.485 243.307C190.253 255.058 183.021 267.443 172.172 272.784C163.625 278.874 153.064 282.141 138.49 284.811C128.738 286.628 117.332 286.573 109.114 286.573Z" fill="#FF9EBA"/>
<line x1="5.99526" y1="-5.99526" x2="73.3887" y2="-5.99526" transform="matrix(0.891567 0.452889 -0.238171 0.971223 4.41333 114.716)" stroke="#FF9EBA" stroke-width="11.9905" stroke-linecap="round"/>
<line x1="5.99526" y1="-5.99526" x2="72.8154" y2="-5.99526" transform="matrix(0.90561 -0.424111 -0.22052 -0.975383 6.62 171.641)" stroke="#FF9EBA" stroke-width="11.9905" stroke-linecap="round"/>
<line x1="5.99526" y1="-5.99526" x2="69.0792" y2="-5.99526" transform="matrix(0.999499 0.0316456 -0.0152832 0.999883 0 145.838)" stroke="#FF9EBA" stroke-width="11.9905" stroke-linecap="round"/>
<line x1="5.99526" y1="-5.99526" x2="73.3887" y2="-5.99526" transform="matrix(-0.891567 0.452889 0.238171 0.971223 248.587 114.717)" stroke="#FF9EBA" stroke-width="11.9905" stroke-linecap="round"/>
<line x1="5.99526" y1="-5.99526" x2="72.8154" y2="-5.99526" transform="matrix(-0.90561 -0.424111 0.22052 -0.975383 246.38 171.642)" stroke="#FF9EBA" stroke-width="11.9905" stroke-linecap="round"/>
<line x1="5.99526" y1="-5.99526" x2="69.0792" y2="-5.99526" transform="matrix(-0.999499 0.0316456 0.0152832 0.999883 253 145.839)" stroke="#FF9EBA" stroke-width="11.9905" stroke-linecap="round"/>
</svg>
