<svg width="221" height="203" viewBox="0 0 221 203" fill="none" xmlns="http://www.w3.org/2000/svg">
<path d="M158.192 22.9174C174.842 30.3062 188.73 42.9315 197.85 58.9696C206.969 75.0077 210.847 93.6283 208.925 112.142C207.002 130.655 199.378 148.103 187.154 161.964C174.93 175.826 158.738 185.384 140.918 189.257C123.098 193.131 104.572 191.12 88.0158 183.514C71.46 175.909 57.7315 163.103 48.8133 146.946C39.8952 130.789 36.2492 112.118 38.4019 93.6296C40.5546 75.1412 48.3947 57.7928 60.7895 44.0903L123.602 103.441L158.192 22.9174Z" fill="#FFA1BC"/>
<path d="M46.9152 35.8006C47.6302 32.2125 44.6486 32.3999 43.0684 32.9421C41.9789 33.5547 39.5114 35.0461 38.3571 36.1108C36.9142 37.4416 32.7432 36.8433 30.7511 35.0198C28.759 33.1963 27.0446 29.7384 27.5 27.9565C28 26 27.9222 19.3849 40.8425 18.7829C46.9152 18.5 53.4141 23.6617 56.5541 27.9565C59.1896 31.5612 61.4441 40.9884 60 44.6735C54.8653 57.7769 65.875 48.5155 67.6781 44.6735C69.4812 40.8314 69.7334 39.0735 68.8308 36.6374C67.9282 34.2013 65.3937 27.4304 61.9723 23.3515C58.5509 19.2726 54.4587 16.379 48.7143 14.5299C42.9698 12.6807 30.1685 12.8949 23.6764 23.2407C17.1844 33.5864 28.133 41.0516 33.1774 42.5441C38.2218 44.0365 46.0215 40.2857 46.9152 35.8006Z" fill="#FFA1BC"/>
<path d="M150.445 104.534C148.314 119.388 134.822 129.742 120.309 127.66C105.797 125.579 95.759 111.849 97.8896 96.9952C100.02 82.1411 105.797 48.9185 120.309 51.0001C134.822 53.0817 152.575 89.6794 150.445 104.534Z" fill="#FFE9AF"/>
<path d="M60.765 45.7315C57.5102 43.9831 78.5002 31.7187 88.3487 31.4911C100.659 31.2065 106.599 36.9281 108.585 40.5447C110.57 44.1613 114.129 49.0287 113.532 58.4261C112.935 67.8234 111.168 71.4143 106.047 80.9315C105.978 81.0605 105.908 81.1875 105.837 81.3128C105.113 82.5932 104.318 83.6822 103.481 84.6173C101.604 87.3972 99.5433 90.8269 99 93C98 97 97.5 100.5 97.5 103.5C97.5 105.9 90.8333 103.167 87.5 101.5L88.3848 86.1639L60.765 45.7315Z" fill="#FFA1BC"/>
<path d="M128 70.5L125.5 69.5L158 60L165.5 106.5C160.667 107.167 150.1 108.5 150.5 104.5C151 99.5 149.5 92.4772 148.5 89.5C146.5 83.5457 141 80 137.5 77.5C134.7 75.5 130.833 73 129.5 73L128 70.5Z" fill="#FFA1BC"/>
<path d="M147.558 73.9335L147.558 72L155.339 73.9595C155.512 73.9408 155.576 73.9495 155.5 74L147.558 75.6084L147.558 87C141 77.5 130.194 73.7228 127.757 72.5531C124.712 71.0911 115.343 63.0837 113.775 51.3254C112.514 41.8764 112.977 41.1739 114.124 33.1786L116.934 13.5907C117.582 9.07037 116.99 9.90775 120.867 10.7813C124.505 11.6012 126.347 14.47 129.422 17.4739C132.497 20.4779 130.749 20.4419 135.598 18.0618C137.036 17.3558 141.744 17.1078 143.772 18.6801C145.78 20.2366 146.323 18.3184 147.27 14.9739L147.299 14.8707C148.128 11.9427 148.786 9.9163 149.918 7.25947C150.209 6.83038 150.356 4.03218 153.64 7.32247L153.687 7.36955C156.947 10.6357 159.34 13.0329 160.368 18.0267C161.401 23.0445 160.839 23.4763 162.824 27.0929C164.809 30.7095 166.619 25.0743 162.524 41.4024C158.429 57.7305 163.353 56.5715 150.639 68.4026C147.255 71.5513 146.752 73.1636 147.558 73.9335Z" fill="#FFA1BC"/>
</svg>
